<svg xmlns="http://www.w3.org/2000/svg" viewBox="0 0 568.8073 179.0817"><defs><style>.cls-1{fill:#fae1d7;fill-rule:evenodd;}</style></defs><g id="Layer_2" data-name="Layer 2"><g id="Layer_1-2" data-name="Layer 1"><path class="cls-1" d="M568.8073,92.2538V84.8225A81.4025,81.4025,0,0,1,551.73,78.29c-2.2279-1.2447-2.8675-3.5167-4.9662-4.4053-7.8842-3.3276-18.5067.2016-21.4782-9.0785a441.2616,441.2616,0,0,1,43.5214,13.36V21.0908c-18.7346-5.6751-39.536-11.2247-57.6417-15.0316-26.1481-5.4956-37.738-10.3389-54.08.063-8.5837,9.9292-11.6655,18.3932-16.5813,30.2919,2.773,4.9851,2.4642,11.3473,5.43,16.2505-1.2132,2.9494-2.42,5.8958-2.335,8.2686.7657,2.8675,2.7257,5.2057,4.5786,7.5911-1.2794,2.4642-3.7152.2142-3.1165,3.8,2.8234,2.3539,5.82,4.6291,8.0354,7.254C396.149,61.6926,322.324,32.6359,264.7432,19.7509c-26.0158-5.82-53.3993-5.1994-71.5845,6.6741-4.1438,7.6289-5.5712,13.6255-9.0627,21.516-.9264,3.274,3.0787,7.8054-1.8875,9.2707.8508,2.398,4.9536,9.2045.293,10.1088,2.2247,3.022,3.06,6.6647,8.4829,8.256,1.1124,13.9942,12.3493,22.5433,26.1293,31.6942-2.335,2.1176-5.88.2458-8.5333-1.61-2.8581-1.49-.05,2.2278-3.0094,1.3487C156.0382,98.5578,97.32,83.58,48.5906,82.5531c-12.072-.2489-24.5379-1.065-32.7246.7658C7.4871,85.1875,1.938,92.6368,0,103.0513c1.7552.8067,2.6785-.2773,4.1784-.06.8666,2.3413-2.4484,3.482-3.6742,5.2561,1.1281-.11,4.8149,2.1774,7.0837,1.0524-.6774,3.8791-5.1584-.7846-5.1237,4.6984.3844,3.9358,4.2509,5.6752,7.3169,6.97-1.418,5.3822-5.5964,4.5377-8.8578,5.76,5.0481.9012,9.9544.8477,12.0941-1.1848,5.6248,6.5827,16.44,1.2541,26.4317,2.65,3.2079.5735.0316,4.0019,3.2394,4.5786,5.8013-.0252,13.6791,4.6164,17.8985,1.0367,7.7959,3.6018,16.6664,5.5712,24.872,4.55a137.8238,137.8238,0,0,0,16.2315,5.401c11.5174,2.7415,24.9665,2.398,36.1373,5.5429,2.4075.6775,4.6227,2.7509,6.9735,3.51,11.9523,3.857,24.0211,3.4914,34.6877,4.9851a20.6044,20.6044,0,0,1,4.9694,4.4053c11.697,1.5188,23.5926,3.482,34.0638,2.25,6.4882,4.0523,15.8912,4.3044,25.0422,6.28,16.5277,3.5766,36.27,12.33,46.6747,6.2613,3.7908-2.2152,4.6983-7.3926,9.6929-7.944,9.6015-15.0593,8.48-27.4591,9.2108-41.4533-4.5566-9.2076-10.9975-17.5739-16.5372-26.3435,9.92-4.84,24.2134,7.9346,32.9578,5.1584,5.5334,3.8885,12.4,7.4777,20.3028,7.7959,1.1911,1.875,4.2477,2.9211,5.6973,4.6826,28.2,5.149,58.2173,18.9132,80.7007,25.9938-14.3377-10.14-26.498-14.9459-43.2242-17.4353-29.4947-15.9069-60.3444-23.2995-95.1046-34.0166-8.3789-2.5839-14.1361-5.817-18.9163-11.426,4.191-1.8371,11.5237,3.3717,16.3418,2.94-3.5545-4.2635-18.138-3.4662-22.2-9.3557,38.362,8.1488,83.83,24.0905,121.1425,39.8525-10.5941.0189-16.5214-4.7992-29.11-8.6814,23.4414,11.01,59.84,23.7344,81.3247,28.7258,1.5063.93,1.7142,2.4453,2.7919,3.57a32.59,32.59,0,0,1,10.15,3.898c-5.4295,1.9033-16.8177-3.6648-24.7617-7.0082,5.6,6.8664,16.1748,7.859,20.98,14.719,27.5882,1.56,67.0248,32.4032,90.9545,16.6,21.68-33.1216,1.7678-61.28-8.7381-85.8371C543.311,82.0528,555.6768,89.0692,568.8073,92.2538ZM544.13,61.2042c-2.8517-.7406-9.9387-.5389-10.1529-3.8948C537.8054,57.6654,541.7412,57.7789,544.13,61.2042Zm-441.22,77.2c-.7185.375-4.6637.06-4.3486-1.6733C99.28,136.3557,103.222,136.6646,102.91,138.404Zm50.516,2.732c-15.6045,1.7615-28.9338-5.4483-45.1118-8.1583-6.025-1.0115-13.1371.605-19.6285-.876-16.033-3.649-32.3244-6.9672-47.9068-11.7254,16.386.3529,34.8454,5.3443,50.6861,4.4683,20.8322,11.2937,51.1557,9.3747,71.6665,19.181C159.6211,144.9647,158.14,142.4879,153.426,141.136ZM214.8417,19.754c1.2951-1.6669,5.7887-3.1164,6.4693-1.6858C218.7365,17.6963,217.5927,20.5229,214.8417,19.754Zm94.632,61.3339c-10.6289-4.26-21.1159-5.7162-28.5588-10.1373-3.2016,3.6144-10.5532-2.1018-15.6077-2.6595,2.3-2.6092,17.4794-.0788,13.7138,1.1029,6.3622,2.6312,11.6687,1.043,16.3355,2.94-.1638-.0725-.52,2.1585-.1071,2.4547,2.9841,2.146,8.6593,2.02,13.1655,2.5556-.7878-1.4558-3.5073-2.0482-3.523-3.8507,2.5682-.64,8.1551.4065,8.4261,4.0681C309.7793,78.35,309.2405,76.7456,309.4737,81.0879ZM370.94,103.0167c-6.86-4.2415-20.9141-5.82-26.7185-12.7622,1.39.4223,2.6028.4538,3.4536-.3371-10.4775-5.2593-19.8616-7.5785-26.7185-12.7622,14.0068,4.2635,28.5494,8.1205,44.2357,16.9878-.7436,1.938,1.6859,2.4579.7815,4.4684C368.6426,96.8215,371.485,100.0168,370.94,103.0167ZM404.08,120.7418c5.24-1.1344,15.4847,4.2163,18.1285,6.9609C415.9,127.7815,410.7577,122.4718,404.08,120.7418ZM454.7161,81.863c2.3476-3.8569-2.37-4.5628-1.1281-7.9251,3.0723-1.3045.3529,3.3812,4.5219,3.4,1.7331-.1765,2.3791-2.7761,4.7393-1.5157,3.8286,6.12,14.8828,9.0123,17.2462,15.7841C470.2386,88.7609,461.0152,82.7391,454.7161,81.863Zm99.3555-1.0052c-7.3107,2.1806-14.8829-4.6038-24.3142-6.006C537.0523,75.0314,545.6013,78.0313,554.0716,80.8578Z"/></g></g></svg>