<svg xmlns="http://www.w3.org/2000/svg" width="568" height="179" viewBox="0 0 568 179"><path d="M568.4,92.2V84.8a82.4,82.4,0,0,1-17.1-6.5c-2.2-1.3-2.8-3.5-4.9-4.4-7.9-3.3-18.5.2-21.5-9.1a437.2,437.2,0,0,1,43.5,13.4V21.1c-18.7-5.6-39.5-11.2-57.6-15-26.1-5.5-37.7-10.3-54,.1-8.6,9.9-11.7,18.3-16.6,30.2,2.8,5,2.5,11.4,5.4,16.3-1.2,2.9-2.4,5.9-2.3,8.2s2.7,5.2,4.6,7.6c-1.3,2.5-3.7.2-3.2,3.8,2.9,2.4,5.9,4.6,8.1,7.3C395.9,61.7,322.1,32.7,264.6,19.8c-26-5.8-53.4-5.2-71.6,6.7-4.1,7.6-5.5,13.6-9,21.5-1,3.2,3,7.8-1.9,9.2.8,2.4,4.9,9.2.3,10.1,2.2,3,3,6.7,8.5,8.3,1.1,14,12.3,22.5,26.1,31.6-2.4,2.2-5.9.3-8.6-1.6s0,2.3-3,1.4C155.9,98.5,97.3,83.6,48.6,82.5c-12.1-.2-24.6-1-32.7.8S1.9,92.6,0,103c1.8.8,2.7-.3,4.2,0,.8,2.3-2.5,3.4-3.7,5.2,1.1-.1,4.8,2.2,7.1,1.1-.7,3.8-5.2-.8-5.1,4.7.3,3.9,4.2,5.6,7.3,6.9-1.4,5.4-5.6,4.6-8.9,5.8,5.1.9,10,.8,12.1-1.2,5.6,6.6,16.4,1.3,26.4,2.6,3.2.6.1,4,3.3,4.6,5.8,0,13.6,4.6,17.8,1.1,7.8,3.6,16.7,5.5,24.9,4.5a153.8,153.8,0,0,0,16.2,5.4c11.5,2.7,25,2.4,36.1,5.5,2.4.7,4.7,2.8,7,3.6,11.9,3.8,24,3.4,34.7,4.9a22.7,22.7,0,0,1,4.9,4.4c11.7,1.6,23.6,3.5,34.1,2.3,6.5,4,15.8,4.3,25,6.3,16.5,3.5,36.2,12.3,46.6,6.2,3.8-2.2,4.7-7.4,9.7-7.9,9.6-15.1,8.5-27.5,9.2-41.4-4.5-9.2-11-17.6-16.5-26.4,9.9-4.8,24.2,8,32.9,5.2,5.6,3.9,12.4,7.5,20.3,7.8,1.2,1.8,4.3,2.9,5.7,4.7,28.2,5.1,58.2,18.9,80.7,25.9-14.4-10.1-26.5-14.9-43.2-17.4-29.5-15.9-60.3-23.3-95.1-34-8.3-2.6-14.1-5.8-18.9-11.4,4.2-1.8,11.5,3.4,16.4,2.9-3.6-4.2-18.2-3.4-22.2-9.3,38.3,8.1,83.7,24.1,121,39.8-10.6,0-16.5-4.8-29.1-8.7,23.5,11,59.8,23.8,81.3,28.7,1.5,1,1.7,2.5,2.8,3.6a30.3,30.3,0,0,1,10.1,3.9c-5.4,1.9-16.8-3.7-24.7-7,5.6,6.9,16.2,7.9,21,14.7,27.5,1.6,66.9,32.4,90.9,16.6,21.6-33.1,1.7-61.2-8.8-85.8C542.9,82,555.3,89.1,568.4,92.2Zm-24.7-31c-2.8-.7-9.9-.5-10.1-3.9C537.4,57.7,541.4,57.8,543.7,61.2ZM102.8,138.4c-.7.3-4.6,0-4.3-1.7s4.6-.1,4.3,1.7Zm50.5,2.7c-15.6,1.7-28.9-5.5-45.1-8.2-6-1-13.1.6-19.6-.8-16-3.7-32.3-7-47.8-11.8,16.3.4,34.8,5.4,50.6,4.5,20.8,11.3,51.1,9.4,71.6,19.2-3.5.9-5-1.6-9.7-2.9ZM214.7,19.8c1.3-1.7,5.8-3.1,6.5-1.7C218.6,17.7,217.4,20.6,214.7,19.8Zm94.6,61.3c-10.7-4.3-21.1-5.7-28.6-10.2-3.2,3.7-10.5-2.1-15.6-2.6,2.3-2.6,17.5-.1,13.7,1.1,6.4,2.6,11.7,1,16.3,2.9-.1,0-.5,2.2-.1,2.5,3,2.1,8.7,2,13.2,2.5-.8-1.4-3.5-2-3.5-3.8,2.5-.7,8.1.4,8.4,4.1C309.6,78.3,309,76.7,309.3,81.1ZM370.7,103c-6.9-4.2-20.9-5.8-26.7-12.8,1.4.5,2.6.5,3.4-.3-10.4-5.3-19.8-7.6-26.7-12.8,14,4.3,28.6,8.2,44.2,17-.7,2,1.7,2.5.8,4.5C368.4,96.8,371.2,100,370.7,103Zm33.1,17.7c5.2-1.1,15.5,4.2,18.1,7C415.6,127.7,410.5,122.4,403.8,120.7Zm50.6-38.8c2.3-3.9-2.4-4.6-1.1-8,3-1.3.3,3.4,4.5,3.4,1.7-.1,2.4-2.7,4.7-1.5,3.9,6.1,14.9,9,17.3,15.8C469.9,88.7,460.7,82.7,454.4,81.9Zm99.3-1.1c-7.3,2.2-14.9-4.6-24.3-6C536.7,75,545.2,78,553.7,80.8Z" style="fill:#fae1d7;fill-rule:evenodd"/></svg>